


<svg width="157" height="157" viewBox="0 0 41.539596 41.539585" version="1.1" id="svg5" xmlns="http://www.w3.org/2000/svg">
  
  <defs id="defs2">
    <clipPath id="clipPath28" clipPathUnits="userSpaceOnUse">
      <path id="path26" d="M 0,739.28 H 955.275 V 0 H 0 Z"></path>
    </clipPath>
  </defs>
  <g id="layer1">
    <g transform="matrix(0.35277777,0,0,-0.35277777,-63.644314,278.92267)" id="g10">
      <g id="g22" transform="translate(51.516863,-82.590527)">
        <g id="g2098" transform="translate(-13.083648,312.37209)">
          <g transform="translate(201.1243,444.54177)" id="g674">
            <path id="path676" style="fill:#4ba651;fill-opacity:1;fill-rule:nonzero;stroke:none" d="m 0,0 c 31.723,0 57.441,25.717 57.441,57.439 0,31.722 -25.718,57.44 -57.441,57.44 -31.721,0 -57.439,-25.718 -57.439,-57.44 C -57.439,25.717 -31.721,0 0,0"></path>
          </g>
          <path id="path678" style="fill:#333132;fill-opacity:1;fill-rule:nonzero;stroke:none" d="m 217.2146,525.06397 h 2.165 v -19.626 h -2.165 z m -4.148,-18.732 v 8.317 h -3.055 v 1.918 h 3.055 v 8.051 h 2.164 v -18.286 z m -9.276,17.417 h 5.508 v -1.852 h -5.508 z m 6.51,-14.698 c -1.135,0.469 -3.277,2.61 -3.722,4.149 -0.426,-1.762 -2.832,-3.812 -4.193,-4.55 l -1.694,1.517 c 2.742,1.427 4.659,3.79 4.659,6.935 v 0.959 h -3.546 v 1.919 h 9.478 v -1.919 h -3.5 v -0.959 c 0,-1.515 0.49,-4.482 3.856,-6.444 z m -13.881,1.807 v 7.672 h -3.948 v 1.984 h 3.948 v 4.55 h 2.229 v -14.206 z m -12.066,-4.972 v 6.266 h 2.231 v -4.392 h 12.534 v -1.874 z m 7.918,7.938 c -1.941,0.691 -3.792,2.297 -4.951,3.948 -0.514,-1.651 -2.944,-3.634 -5.084,-4.572 l -1.674,1.673 c 5.062,2.052 5.575,5.263 5.575,6.557 v 0.557 h -4.148 v 1.873 h 10.682 v -1.873 h -4.125 v -0.557 c 0,-1.161 0.69,-4.194 5.04,-5.843 z"></path>
          <g transform="translate(227.9593,498.72247)" id="g680">
            <path id="path682" style="fill:#333132;fill-opacity:1;fill-rule:nonzero;stroke:none" d="m 0,0 v -8.098 h 3.01 v -1.983 H 0 v -9.545 H -2.23 V 0 Z m -14.875,-16.214 -1.673,1.317 c 5.865,2.629 7.985,7.827 8.23,10.815 h -7.048 v 1.873 h 9.614 c -0.023,-4.639 -2.922,-11.15 -9.123,-14.005 m -5.633,9.345 v -4.751 h -2.229 V 0 h 2.229 v -4.93 h 2.787 v -1.939 z m -2.229,-7.562 h -9.321 v -3.1 h 9.321 z m -11.553,1.874 h 13.781 v -6.847 H -34.29 Z m 3.013,1.739 -5.018,-0.044 v 5.799 h 7.493 v 2.164 h -7.493 v 1.849 h 9.722 v -5.819 h -7.515 v -2.142 l 3.656,0.023 c 1.941,0.022 4.819,0.267 6.201,0.446 v -1.808 c -1.449,-0.2 -4.525,-0.423 -7.046,-0.468 m -9.536,2.632 v -6.311 h -2.23 V 0 h 2.23 v -6.29 h 2.743 V -8.186 Z M -54.55,-19.179 v 5.776 h 2.207 v -3.904 h 12.199 v -1.872 z m 7.939,11.105 h -2.208 c 0.044,0.155 0.669,2.921 0.803,5.108 h -8.587 v 1.872 h 10.996 c -0.044,-1.383 -0.425,-5.285 -1.004,-6.98 m -8.72,-3.858 h -2.586 v 1.874 h 3.835 v 4.282 h 2.23 v -4.282 c 1.561,0 6.179,0.289 8.05,0.579 v -1.828 c -2.787,-0.336 -6.623,-0.625 -11.529,-0.625"></path>
          </g>
        </g>
        <g transform="translate(850.8065,249.23227)" id="g642">
          <path id="path644" style="fill:none;stroke:#232323;stroke-width:0.3;stroke-linecap:round;stroke-linejoin:round;stroke-miterlimit:4;stroke-dasharray:none;stroke-opacity:1" d="M 0,0 V -0.5 H -0.5"></path>
        </g>
        <g transform="translate(24.306501,248.73227)" id="g650">
          <path id="path652" style="fill:none;stroke:#232323;stroke-width:0.3;stroke-linecap:round;stroke-linejoin:round;stroke-miterlimit:4;stroke-dasharray:none;stroke-opacity:1" d="M 0,0 H -0.5 V 0.5"></path>
        </g>
        <g id="g2138" transform="translate(-316.15903,700.62993)">
          <g transform="translate(677.9119,440.86697)" id="g684">
            <path id="path686" style="fill:#cc3335;fill-opacity:1;fill-rule:nonzero;stroke:none" d="M 0,0 C 31.723,0 57.438,25.716 57.438,57.439 57.438,89.16 31.723,114.877 0,114.877 -31.723,114.877 -57.438,89.16 -57.438,57.439 -57.438,25.716 -31.723,0 0,0"></path>
          </g>
          <g transform="translate(704.1346,506.70397)" id="g688">
            <path id="path690" style="fill:#ffffff;fill-opacity:1;fill-rule:nonzero;stroke:none" d="M 0,0 V 6.735 H -5.643 V 8.54 H 0 v 1.763 h -5.643 v 1.785 H 0 v 2.118 H 2.227 V 0 Z m -11.821,-4.972 v 5.931 h 2.229 V -3.1 H 2.672 v -1.872 z m 2.698,7.826 -4.86,-0.044 v 10.572 h 2.229 v -8.7 l 2.652,0.046 c 2.655,0.043 5.51,0.379 7.026,0.691 V 3.591 C -3.369,3.302 -6.156,2.898 -9.123,2.854 m -24.32,-0.446 -1.561,1.628 c 6.713,2.276 7.604,6.133 7.604,7.985 v 1.561 h 2.364 v -1.561 c 0,-1.852 1.138,-5.798 7.603,-7.985 l -1.559,-1.628 c -3.012,0.869 -6.244,3.749 -7.227,5.909 -0.869,-2.408 -4.302,-5.04 -7.224,-5.909 m -2.586,-5.397 v 1.873 h 8.695 V 3.12 h 2.188 v -4.236 h 8.741 v -1.873 z m -4.362,5.086 v 4.705 h -3.925 v 1.806 h 3.925 v 5.598 h 2.231 V 2.097 Z m -5.173,-1.986 c -3.055,0 -4.862,-0.802 -4.862,-2.051 0,-1.248 1.807,-2.053 4.862,-2.053 2.988,0 4.839,0.805 4.839,2.031 0,1.271 -1.851,2.073 -4.839,2.073 m -6.98,14.095 h 6.2 v -1.807 h -6.2 z M -38.139,-1.94 c 0,-2.208 -2.519,-3.792 -7.402,-3.792 -4.885,0 -7.473,1.584 -7.473,3.792 0,2.206 2.567,3.767 7.428,3.767 4.904,0 7.447,-1.561 7.447,-3.767 m -6.064,4.861 c -1.629,0.267 -4.35,1.941 -5.24,3.347 -0.694,-1.472 -3.458,-3.392 -5.309,-3.837 l -1.45,1.672 c 4.794,1.561 5.509,4.214 5.509,4.997 h -4.149 v 1.805 h 10.727 V 9.1 h -4.17 c 0,-0.783 1.56,-3.592 5.218,-4.418 z"></path>
          </g>
          <g transform="translate(715.8592,494.56527)" id="g692">
            <path id="path694" style="fill:#ffffff;fill-opacity:1;fill-rule:nonzero;stroke:none" d="m 0,0 v -8.094 h 3.01 v -1.985 H 0 v -9.543 H -2.232 V 0 Z m -14.877,-16.211 -1.672,1.315 c 5.865,2.632 7.985,7.827 8.231,10.816 h -7.048 v 1.874 h 9.611 c -0.022,-4.637 -2.921,-11.15 -9.122,-14.005 m -7.771,12.487 h -10.08 v -1.582 h 10.08 z m -12.311,-3.3 v 6.712 h 2.23 v -1.827 h 10.081 v 1.827 h 2.23 v -6.712 z m 6.09,-3.078 h -8.633 v 1.72 h 19.625 v -1.72 h -8.674 v -1.627 h 6.133 v -4.662 h -12.2 v -1.315 h 12.69 V -19.4 h -15.031 v 4.637 h 12.199 v 1.338 h -12.199 v 1.696 h 6.09 z m -12.147,3.236 v -4.752 h -2.229 V 0 h 2.229 v -4.927 h 2.789 v -1.939 z m -2.229,-7.563 h -9.321 v -3.099 h 9.321 z m -11.552,1.876 h 13.781 v -6.848 h -13.781 z m 3.01,1.74 -5.016,-0.046 v 5.797 h 7.493 v 2.164 h -7.493 v 1.852 h 9.723 v -5.82 h -7.516 v -2.142 l 3.658,0.022 c 1.939,0.021 4.816,0.267 6.198,0.446 v -1.807 c -1.448,-0.2 -4.526,-0.423 -7.047,-0.466 m -9.533,2.63 v -6.312 h -2.231 V 0 h 2.231 v -6.287 h 2.742 v -1.896 z m -13.737,-10.995 v 5.777 h 2.208 v -3.904 h 12.197 v -1.873 z m 7.939,11.107 h -2.209 c 0.045,0.157 0.67,2.921 0.804,5.106 h -8.585 v 1.874 h 10.993 c -0.045,-1.382 -0.422,-5.286 -1.003,-6.98 m -8.72,-3.859 h -2.588 v 1.873 h 3.836 v 4.282 h 2.231 v -4.282 c 1.562,0 6.177,0.291 8.05,0.581 v -1.829 c -2.789,-0.336 -6.623,-0.625 -11.529,-0.625"></path>
          </g>
        </g>
        <g id="g2109" transform="translate(-316.15903,700.62993)">
          <g transform="translate(361.264,443.54177)" id="g696">
            <path id="path698" style="fill:#35a5dd;fill-opacity:1;fill-rule:nonzero;stroke:none" d="m 0,0 c 31.723,0 57.44,25.717 57.44,57.439 0,31.723 -25.717,57.44 -57.44,57.44 -31.72,0 -57.438,-25.717 -57.438,-57.44 C -57.438,25.717 -31.72,0 0,0"></path>
          </g>
          <path id="path700" style="fill:#333132;fill-opacity:1;fill-rule:nonzero;stroke:none" d="m 380.2316,524.32797 h 2.165 v -19.625 h -2.165 z m -4.148,-18.731 v 10.012 h -3.123 v 2.007 h 3.123 v 6.266 h 2.165 v -18.285 z m -2.788,2.876 c -1.428,1.115 -3.477,3.657 -3.945,5.418 -0.493,-1.85 -2.32,-4.393 -4.127,-5.931 l -1.807,1.338 c 3.457,2.253 4.773,6.065 4.773,10.146 v 3.301 h 2.341 v -3.301 c 0,-4.014 1.36,-7.336 4.348,-9.566 z"></path>
          <g transform="translate(388.9588,497.98517)" id="g702">
            <path id="path704" style="fill:#333132;fill-opacity:1;fill-rule:nonzero;stroke:none" d="m 0,0 v -8.095 h 3.009 v -1.984 H 0 v -9.545 H -2.232 V 0 Z m -14.877,-16.212 -1.671,1.316 c 5.863,2.631 7.984,7.828 8.229,10.816 h -7.048 v 1.872 h 9.614 c -0.024,-4.638 -2.923,-11.149 -9.124,-14.004 m -5.631,9.344 v -4.75 h -2.229 V 0 h 2.229 v -4.927 h 2.786 v -1.941 z m -2.229,-7.56 h -9.322 v -3.1 h 9.322 z m -11.554,1.873 h 13.782 v -6.848 h -13.782 z m 3.012,1.74 -5.017,-0.045 v 5.798 h 7.492 v 2.164 h -7.492 v 1.85 h 9.721 v -5.82 h -7.514 v -2.141 l 3.656,0.022 c 1.941,0.022 4.818,0.268 6.201,0.447 v -1.808 c -1.449,-0.199 -4.526,-0.423 -7.047,-0.467 m -9.535,2.631 v -6.312 h -2.23 V 0 h 2.23 v -6.288 h 2.742 v -1.896 z m -13.737,-10.994 v 5.776 h 2.207 v -3.904 h 12.199 v -1.872 z m 7.939,11.105 h -2.208 c 0.044,0.156 0.669,2.922 0.803,5.108 h -8.587 v 1.872 h 10.995 c -0.044,-1.382 -0.424,-5.284 -1.003,-6.98 m -8.72,-3.858 h -2.586 v 1.874 h 3.835 v 4.283 h 2.23 v -4.283 c 1.561,0 6.178,0.29 8.05,0.578 v -1.827 c -2.787,-0.335 -6.623,-0.625 -11.529,-0.625"></path>
          </g>
          <g transform="translate(344.0907,506.41197)" id="g706">
            <path id="path708" style="fill:#232323;fill-opacity:1;fill-rule:nonzero;stroke:none" d="m 0,0 0.025,11.958 h -3.531 v 1.778 c 0.536,0.015 1.047,0.094 1.534,0.232 0.487,0.137 0.926,0.345 1.315,0.621 0.293,0.211 0.551,0.522 0.78,0.936 0.227,0.414 0.356,0.849 0.389,1.303 H 2.217 L 2.192,0 Z"></path>
          </g>
          <g transform="translate(361.1873,522.20587)" id="g710">
            <path id="path712" style="fill:#232323;fill-opacity:1;fill-rule:nonzero;stroke:none" d="m 0,0 c 0.876,-0.999 1.315,-2.181 1.315,-3.543 0,-1.349 -0.381,-2.436 -1.144,-3.265 -0.764,-0.827 -1.502,-1.484 -2.217,-1.971 l -2.727,-1.875 c -0.439,-0.31 -0.918,-0.74 -1.436,-1.291 -0.521,-0.553 -0.869,-1.146 -1.049,-1.778 l 8.5,-0.025 v -1.899 l -11.154,0.048 c 0.016,1.154 0.277,2.277 0.779,3.373 0.503,1.096 1.543,2.197 3.117,3.3 l 2.752,1.948 c 0.617,0.439 1.125,0.942 1.523,1.51 0.398,0.569 0.597,1.201 0.597,1.901 0,0.957 -0.244,1.708 -0.732,2.252 -0.487,0.543 -1.233,0.816 -2.24,0.816 -1.202,0 -2.03,-0.35 -2.484,-1.048 -0.454,-0.698 -0.698,-1.461 -0.731,-2.289 h -2.094 c 0.032,1.396 0.475,2.635 1.327,3.714 0.853,1.079 2.195,1.62 4.031,1.62 1.834,0 3.191,-0.5 4.067,-1.498"></path>
          </g>
        </g>
        <g id="g2130" transform="translate(-316.15903,700.62993)">
          <g transform="translate(524.4949,443.54277)" id="g714">
            <path id="path716" style="fill:#f0a435;fill-opacity:1;fill-rule:nonzero;stroke:none" d="m 0,0 c 31.724,0 57.441,25.716 57.441,57.438 0,31.721 -25.717,57.439 -57.441,57.439 -31.721,0 -57.438,-25.718 -57.438,-57.439 C -57.438,25.716 -31.721,0 0,0"></path>
          </g>
          <g id="g2118">
            <path id="path718" style="fill:#333132;fill-opacity:1;fill-rule:nonzero;stroke:none" d="m 543.4626,520.71297 h 2.164 v -19.625 h -2.164 z m -4.149,-18.732 v 10.012 h -3.121 v 2.007 h 3.121 v 6.268 h 2.165 v -18.287 z m -2.787,2.876 c -1.427,1.116 -3.478,3.657 -3.946,5.42 -0.492,-1.852 -2.319,-4.392 -4.126,-5.93 l -1.807,1.334 c 3.458,2.253 4.773,6.068 4.773,10.15 v 3.299 h 2.34 v -3.299 c 0,-4.017 1.36,-7.341 4.349,-9.568 z"></path>
            <g transform="translate(552.1883,494.36897)" id="g720">
              <path id="path722" style="fill:#333132;fill-opacity:1;fill-rule:nonzero;stroke:none" d="m 0,0 v -8.092 h 3.011 v -1.987 H 0 v -9.543 H -2.23 V 0 Z m -14.875,-16.212 -1.672,1.316 c 5.863,2.633 7.984,7.827 8.229,10.815 h -7.046 v 1.876 h 9.612 c -0.023,-4.641 -2.923,-11.151 -9.123,-14.007 m -5.632,9.346 v -4.751 h -2.229 V 0 h 2.229 v -4.926 h 2.787 v -1.94 z m -2.229,-7.562 h -9.321 v -3.1 h 9.321 z m -11.553,1.872 h 13.782 V -19.4 h -13.782 z m 3.013,1.743 -5.019,-0.045 v 5.797 h 7.493 v 2.162 h -7.493 v 1.853 h 9.723 v -5.82 h -7.516 v -2.142 l 3.656,0.023 c 1.943,0.021 4.819,0.267 6.202,0.445 v -1.807 c -1.449,-0.2 -4.527,-0.423 -7.046,-0.466 m -9.537,2.63 v -6.311 h -2.23 V 0 h 2.23 v -6.287 h 2.744 V -8.183 Z M -54.55,-19.178 v 5.776 h 2.207 v -3.903 h 12.199 v -1.873 z m 7.939,11.107 h -2.207 c 0.044,0.156 0.668,2.922 0.803,5.105 h -8.588 v 1.875 h 10.996 c -0.044,-1.382 -0.423,-5.285 -1.004,-6.98 m -8.72,-3.859 h -2.585 v 1.872 h 3.835 v 4.283 h 2.23 v -4.283 c 1.561,0 6.178,0.289 8.05,0.582 v -1.832 c -2.788,-0.332 -6.624,-0.622 -11.53,-0.622"></path>
            </g>
            <g transform="translate(507.3221,503.42067)" id="g724">
              <path id="path726" style="fill:#232323;fill-opacity:1;fill-rule:nonzero;stroke:none" d="m 0,0 0.024,11.957 h -3.53 v 1.778 c 0.535,0.017 1.047,0.094 1.533,0.232 0.488,0.137 0.926,0.345 1.316,0.621 0.292,0.211 0.553,0.523 0.779,0.937 0.228,0.414 0.357,0.849 0.39,1.304 H 2.216 L 2.192,0 Z"></path>
            </g>
            <g transform="translate(524.199,513.18537)" id="g728">
              <path id="path730" style="fill:#232323;fill-opacity:1;fill-rule:nonzero;stroke:none" d="m 0,0 c 1.169,-0.859 1.754,-2.321 1.754,-4.382 0,-1.867 -0.593,-3.305 -1.778,-4.31 -1.185,-1.007 -2.468,-1.51 -3.848,-1.51 -1.705,0 -3.036,0.49 -3.995,1.473 -0.957,0.982 -1.526,2.089 -1.703,3.324 h 2.143 c 0.097,-0.715 0.45,-1.36 1.059,-1.937 0.608,-0.576 1.407,-0.863 2.397,-0.863 0.959,0 1.742,0.356 2.352,1.07 0.608,0.715 0.914,1.615 0.914,2.704 0,1.054 -0.285,1.956 -0.854,2.703 -0.567,0.747 -1.355,1.12 -2.362,1.12 -0.778,0 -1.424,-0.13 -1.936,-0.389 -0.511,-0.26 -0.921,-0.601 -1.23,-1.024 l -2.07,0.025 1.315,8.841 H 1.096 V 4.799 H -5.917 L -6.6,0.61 c 0.519,0.324 1.077,0.543 1.668,0.659 0.593,0.112 1.173,0.153 1.743,0.121 C -2.233,1.324 -1.17,0.861 0,0"></path>
            </g>
          </g>
        </g>
      </g>
    </g>
  </g>
</svg>
